<?xml version="1.0" encoding="UTF-8" standalone="no"?>
<!-- Created with Inkscape (http://www.inkscape.org/) -->

<svg
   width="210mm"
   height="297mm"
   viewBox="0 0 210 297"
   version="1.1"
   id="svg1"
   xml:space="preserve"
   inkscape:version="1.4.2 (f4327f4, 2025-05-13)"
   sodipodi:docname="SimpleMSI-Inkscape.svg"
   xmlns:inkscape="http://www.inkscape.org/namespaces/inkscape"
   xmlns:sodipodi="http://sodipodi.sourceforge.net/DTD/sodipodi-0.dtd"
   xmlns="http://www.w3.org/2000/svg"
   xmlns:svg="http://www.w3.org/2000/svg"><sodipodi:namedview
     id="namedview1"
     pagecolor="#ffffff"
     bordercolor="#000000"
     borderopacity="0.25"
     inkscape:showpageshadow="2"
     inkscape:pageopacity="0.0"
     inkscape:pagecheckerboard="0"
     inkscape:deskcolor="#d1d1d1"
     inkscape:document-units="mm"
     showgrid="true"
     inkscape:zoom="1.0476431"
     inkscape:cx="396.60453"
     inkscape:cy="561.25984"
     inkscape:window-width="2560"
     inkscape:window-height="1369"
     inkscape:window-x="-8"
     inkscape:window-y="-8"
     inkscape:window-maximized="1"
     inkscape:current-layer="layer1"><inkscape:grid
       id="grid5"
       units="mm"
       originx="0"
       originy="0"
       spacingx="0.99999998"
       spacingy="1"
       empcolor="#0099e5"
       empopacity="0.30196078"
       color="#0099e5"
       opacity="0.14901961"
       empspacing="5"
       enabled="true"
       visible="true" /></sodipodi:namedview><defs
     id="defs1"><linearGradient
       id="swatch4"><stop
         style="stop-color:#000000;stop-opacity:1;"
         offset="0"
         id="stop4" /></linearGradient><filter
       id="mask-powermask-path-effect10_inverse"
       inkscape:label="filtermask-powermask-path-effect10"
       style="color-interpolation-filters:sRGB"
       height="100"
       width="100"
       x="-50"
       y="-50"><feColorMatrix
         id="mask-powermask-path-effect10_primitive1"
         values="1"
         type="saturate"
         result="fbSourceGraphic" /><feColorMatrix
         id="mask-powermask-path-effect10_primitive2"
         values="-1 0 0 0 1 0 -1 0 0 1 0 0 -1 0 1 0 0 0 1 0 "
         in="fbSourceGraphic" /></filter></defs><g
     inkscape:label="Ebene 1"
     inkscape:groupmode="layer"
     id="layer1"
     style="fill:#66cc66;fill-opacity:1;stroke-width:2;stroke-dasharray:none;stroke:#66cc66;stroke-opacity:1;stroke-linejoin:round"><rect
       style="fill:#66cc66;fill-opacity:1;stroke:#66cc66;stroke-width:16.6186;stroke-linecap:butt;stroke-linejoin:round;stroke-dasharray:none;stroke-opacity:1"
       id="rect1"
       width="83.381378"
       height="83.381378"
       x="8.309309"
       y="8.309309" /><g
       id="g140"
       transform="matrix(1.0213956,0,0,1.0441613,2.5458706,-7.1584593)"><g
         style="fill:none;stroke:#000000;stroke-width:3"
         id="g4"
         transform="matrix(1.0926573,0,0,1.102962,26.64976,176.4076)"><path
           id="path1"
           style="display:inline;stroke:#000000;stroke-width:3.63728;stroke-linejoin:round;stroke-dasharray:none;stroke-opacity:1"
           d="m 28.833176,-141.05171 -7.321159,3.89484 21.088049,11.28393 7.17312,-3.70883 a 0.08,0.08 0 0 0 0,-0.14993 l -20.86008,-11.32001 z m 13.76689,15.17877 -0.17688,0.0914 -1.51862,0.78291 1.69834,-0.87286 z m 0.003,0.001 v 7.94008 l -2.84995,1.45992 -2.89016,1.48991 v -7.91993 l -0.0132,-0.007 -0.2464,0.12697 -8.73998,4.53016 h -0.0473 a 0.09,0.09 0 0 0 -0.002,0.0248 l 0.009,0.005 0.50983,20.029874 a 0.09,0.09 0 0 1 -0.0175,0.04404 0.09,0.09 0 0 0 0.11776,0.03608 l 21.42998,-11.310174 a 0.1,0.1 0 0 0 0.0501,-0.0801 v -19.99996 a 0.09,0.09 0 0 0 -0.12012,-0.0801 z m -14.2876,27.723983 a 0.09,0.09 0 0 1 -0.0123,-0.04404 l -0.48003,-19.999893 a 0.09,0.09 0 0 1 -0.009,-0.0351 l -1.01447,-0.56082 -19.5259123,-10.6444 a 0.08,0.08 0 0 1 0,-0.14993 l 0.0047,-0.002 a 0.09,0.09 0 0 0 -0.124857,0.0726 v 20.15966 a 0.1,0.1 0 0 0 0.05013,0.0801 l 20.9994893,11.1499 a 0.09,0.09 0 0 0 0.11209,-0.02577 z M 7.2778627,-129.58411 a 0.09,0.09 0 0 1 0.0052,0.002 l 19.5159833,10.79432 0.98373,0.53599 h 0.0331 a 0.09,0.09 0 0 1 0.007,-0.0202 l 9.0001,-4.62995 0.0203,-0.0103 -21.062981,-11.19585 z m 8.5025653,-4.52361 5.731589,-3.04915 -0.009,-0.005 -5.73017,3.05009 z m 21.062978,11.19586 0.006,0.003 4.05501,-2.09009 z" /><path
           style="fill:#d6966b;fill-opacity:1;stroke:none;stroke-width:67.6614;stroke-linecap:butt;stroke-linejoin:miter;stroke-dasharray:none;stroke-opacity:1"
           d="m 248.19435,188.75703 c -0.37372,-16.93086 -0.53071,-32.42201 -0.34886,-34.42478 0.32831,-3.61583 0.41275,-3.68382 12.02354,-9.68177 l 11.69292,-6.04037 v 12.63603 c 0,13.99598 0.70634,15.79548 6.2001,15.79548 2.63848,0 25.06527,-11.12182 28.40138,-14.08471 1.46427,-1.30046 1.67041,-3.43996 1.67041,-17.33656 v -15.85301 l 8.6027,-4.59674 8.6027,-4.59674 -0.25062,34.63386 -0.25062,34.63386 -37.22641,19.84399 c -20.47453,10.91419 -37.49897,19.84644 -37.83208,19.84942 -0.33312,0.003 -0.91144,-13.8471 -1.28516,-30.77796 z"
           id="path132"
           transform="matrix(0.24214668,0,0,0.23988436,-30.399361,-153.52856)" /><path
           style="fill:#d6956b;fill-opacity:1;stroke:none;stroke-width:67.6614;stroke-linecap:butt;stroke-linejoin:miter;stroke-dasharray:none;stroke-opacity:1"
           d="m 198.5409,199.9333 -36.2719,-19.44585 -0.25057,-34.43533 -0.25057,-34.43532 6.93224,3.8117 c 3.81273,2.09645 20.03307,11.03148 36.0452,19.85564 l 29.11297,16.04393 0.7211,28.1404 c 0.3966,15.47722 0.61137,30.78872 0.47726,34.02553 l -0.24384,5.88515 z"
           id="path133"
           transform="matrix(0.24214668,0,0,0.23988436,-30.399361,-153.52856)" /><path
           style="fill:#d5986c;fill-opacity:1;stroke:none;stroke-width:67.6614;stroke-linecap:butt;stroke-linejoin:miter;stroke-dasharray:none;stroke-opacity:1"
           d="m 206.10568,120.19153 c -18.86029,-10.51109 -34.62659,-19.44542 -35.03623,-19.85406 -0.40963,-0.408648 3.84148,-3.188179 9.4469,-6.176738 l 10.19169,-5.433745 31.12035,16.672663 c 17.11619,9.16996 33.38999,17.91663 36.164,19.43705 l 5.04366,2.7644 -11.31946,5.85075 -11.31946,5.85074 z"
           id="path134"
           transform="matrix(0.24214668,0,0,0.23988436,-30.399361,-153.52856)" /><path
           style="fill:#c87137;fill-opacity:1;stroke:none;stroke-width:67.6614;stroke-linecap:butt;stroke-linejoin:miter;stroke-dasharray:none;stroke-opacity:1"
           d="M 243.4035,101.49178 C 224.50394,91.30209 208.23648,82.50999 207.25361,81.953783 c -1.61073,-0.911511 -1.38923,-1.237253 2.24511,-3.301593 2.21768,-1.259669 4.38794,-2.290307 4.82279,-2.290307 0.63537,0 20.37075,10.540404 71.36403,38.114577 0.81493,0.44066 -0.32593,1.5012 -3.34083,3.10561 l -4.57836,2.43642 z"
           id="path135"
           transform="matrix(0.24214668,0,0,0.23988436,-30.399361,-153.52856)" /><path
           style="fill:#d5986c;fill-opacity:1;stroke:none;stroke-width:67.6614;stroke-linecap:butt;stroke-linejoin:miter;stroke-dasharray:none;stroke-opacity:1"
           d="m 265.22561,87.979692 -36.40383,-19.686497 7.60871,-4.133839 c 4.18479,-2.273612 8.16602,-4.001826 8.84718,-3.840476 1.80278,0.427034 71.10174,38.385676 71.11169,38.951568 0.005,0.262494 -3.31447,2.258922 -7.37576,4.436502 l -7.38416,3.95924 z"
           id="path136"
           transform="matrix(0.24214668,0,0,0.23988436,-30.399361,-153.52856)" /><path
           style="fill:#c87137;fill-opacity:1;stroke:none;stroke-width:67.6614;stroke-linecap:butt;stroke-linejoin:miter;stroke-dasharray:none;stroke-opacity:1"
           d="m 263.92673,127.65715 9.7e-4,-8.81897 4.67369,-2.62494 c 2.57054,-1.44372 4.93255,-2.62494 5.24891,-2.62494 0.31637,0 0.57522,3.99111 0.57522,8.86913 v 8.86913 l -5.24988,2.57478 -5.24988,2.57478 z"
           id="path137"
           transform="matrix(0.24214668,0,0,0.23988436,-25.545533,-150.32291)" /></g><g
         style="fill:#000000;fill-opacity:1;stroke:none;stroke-linejoin:miter;stroke-opacity:1"
         id="g5"
         transform="matrix(0.12691124,0,0,0.15370766,11.109693,217.93532)"><path
           d="m 225.64287,-1059.7507 -144.074492,22.3505 H -7.9595249 v 206.54415 H 97.574845 v -42.65362 l 74.014135,-8.30077 143.39856,40.25653 189.05221,-104.1983 -16.94299,-64.65119 -121.27617,29.4074 v -43.6521 z m -1.42108,31.0312 111.14946,27.8339 v 19.8627 l -85.27281,-20.7973 -7.21533,29.5822 107.70467,26.26726 114.63089,-27.79697 3.35521,12.79575 -157.36095,86.72937 -137.11569,-38.49147 -76.522395,8.58653 V -1009.072 Z m -201.731974,21.7655 h 44.635688 v 136.86012 8.78825 H 22.489816 Z"
           style="display:inline;opacity:1;stroke:#000000;stroke-width:5.5775;stroke-linecap:butt;stroke-linejoin:round;stroke-dasharray:none;stroke-opacity:1"
           id="path20" /><path
           style="fill:#e3bb97;fill-opacity:1;stroke:none;stroke-width:67.6614;stroke-linecap:butt;stroke-linejoin:miter;stroke-dasharray:none;stroke-opacity:1"
           d="m 158.92817,319.18783 -31.97654,-10.97652 -15.27238,2.01623 c -8.3998,1.10892 -16.668363,2.25302 -18.374574,2.54243 l -3.102201,0.52621 v -30.17372 c 0,-16.59555 0.303283,-30.17372 0.673963,-30.17372 0.370679,0 13.225522,-2.36245 28.566312,-5.24988 15.34079,-2.88743 29.03228,-5.24988 30.42553,-5.24988 1.39325,0 14.09578,3.50996 28.22784,7.79991 l 25.69466,7.79991 v 5.08616 c 0,2.79738 -0.23055,5.08616 -0.51233,5.08616 -0.28179,0 -9.34078,-2.62438 -20.13109,-5.83196 -10.79032,-3.20757 -19.94782,-5.46263 -20.35001,-5.01125 -0.72082,0.80901 -4.08406,16.68359 -3.6271,17.12005 0.12935,0.12354 11.87318,3.65403 26.0974,7.84552 l 25.86222,7.6209 27.08756,-7.95479 c 14.89817,-4.37513 27.20231,-7.84005 27.34253,-7.69983 0.14023,0.14023 0.52109,1.58562 0.84637,3.21198 l 0.5914,2.95703 -37.32151,24.89319 c -20.52683,13.69125 -37.64776,24.87051 -38.04651,24.84279 -0.39876,-0.0277 -15.11444,-4.98983 -32.70154,-11.02692 z"
           id="path139"
           transform="matrix(2.0847904,0,0,1.7213412,-89.52906,-1444.1449)" /><path
           style="fill:#2c5cdf;fill-opacity:1;stroke:none;stroke-width:67.6614;stroke-linecap:butt;stroke-linejoin:miter;stroke-dasharray:none;stroke-opacity:1"
           d="m 53.93058,296.37956 v -41.52177 h 10.499759 10.499759 v 41.52177 41.52177 H 64.430339 53.93058 Z"
           id="path140"
           transform="matrix(2.0847904,0,0,1.7213412,-89.52906,-1444.1449)" /></g></g></g></svg>
